# 3ds Max Wavefront OBJ Exporter v0.94b - (c)2007 guruware
# File Created: 27.06.2013 18:17:56

#
# object Cylinder01
#

v  0.0000 -5.0000 -0.0000
v  3.8302 -5.0000 -3.2139
v  4.6985 -5.0000 -1.7101
v  5.0000 -5.0000 -0.0000
v  0.8682 -5.0000 -4.9240
v  2.5000 -5.0000 -4.3301
v  -2.5000 -5.0000 -4.3301
v  -0.8682 -5.0000 -4.9240
v  -4.6985 -5.0000 -1.7101
v  -3.8302 -5.0000 -3.2139
v  -4.6985 -5.0000 1.7101
v  -5.0000 -5.0000 -0.0000
v  -2.5000 -5.0000 4.3301
v  -3.8302 -5.0000 3.2139
v  0.8682 -5.0000 4.9240
v  -0.8682 -5.0000 4.9240
v  3.8302 -5.0000 3.2139
v  2.5000 -5.0000 4.3301
v  4.6985 -5.0000 1.7101
v  4.6985 -3.0000 -1.7101
v  5.0000 -3.0000 -0.0000
v  3.8302 -3.0000 -3.2139
v  2.5000 -3.0000 -4.3301
v  0.8682 -3.0000 -4.9240
v  -0.8682 -3.0000 -4.9240
v  -2.5000 -3.0000 -4.3301
v  -3.8302 -3.0000 -3.2139
v  -4.6985 -3.0000 -1.7101
v  -5.0000 -3.0000 -0.0000
v  -4.6985 -3.0000 1.7101
v  -3.8302 -3.0000 3.2139
v  -2.5000 -3.0000 4.3301
v  -0.8682 -3.0000 4.9240
v  0.8682 -3.0000 4.9240
v  2.5000 -3.0000 4.3301
v  3.8302 -3.0000 3.2139
v  4.6985 -3.0000 1.7101
v  4.6985 -1.0000 -1.7101
v  5.0000 -1.0000 -0.0000
v  3.8302 -1.0000 -3.2139
v  2.5000 -1.0000 -4.3301
v  0.8682 -1.0000 -4.9240
v  -0.8682 -1.0000 -4.9240
v  -2.5000 -1.0000 -4.3301
v  -3.8302 -1.0000 -3.2139
v  -4.6985 -1.0000 -1.7101
v  -5.0000 -1.0000 -0.0000
v  -4.6985 -1.0000 1.7101
v  -3.8302 -1.0000 3.2139
v  -2.5000 -1.0000 4.3301
v  -0.8682 -1.0000 4.9240
v  0.8682 -1.0000 4.9240
v  2.5000 -1.0000 4.3301
v  3.8302 -1.0000 3.2139
v  4.6985 -1.0000 1.7101
v  4.6985 1.0000 -1.7101
v  5.0000 1.0000 -0.0000
v  3.8302 1.0000 -3.2139
v  2.5000 1.0000 -4.3301
v  0.8682 1.0000 -4.9240
v  -0.8682 1.0000 -4.9240
v  -2.5000 1.0000 -4.3301
v  -3.8302 1.0000 -3.2139
v  -4.6985 1.0000 -1.7101
v  -5.0000 1.0000 -0.0000
v  -4.6985 1.0000 1.7101
v  -3.8302 1.0000 3.2139
v  -2.5000 1.0000 4.3301
v  -0.8682 1.0000 4.9240
v  0.8682 1.0000 4.9240
v  2.5000 1.0000 4.3301
v  3.8302 1.0000 3.2139
v  4.6985 1.0000 1.7101
v  4.6985 3.0000 -1.7101
v  5.0000 3.0000 -0.0000
v  3.8302 3.0000 -3.2139
v  2.5000 3.0000 -4.3301
v  0.8682 3.0000 -4.9240
v  -0.8682 3.0000 -4.9240
v  -2.5000 3.0000 -4.3301
v  -3.8302 3.0000 -3.2139
v  -4.6985 3.0000 -1.7101
v  -5.0000 3.0000 -0.0000
v  -4.6985 3.0000 1.7101
v  -3.8302 3.0000 3.2139
v  -2.5000 3.0000 4.3301
v  -0.8682 3.0000 4.9240
v  0.8682 3.0000 4.9240
v  2.5000 3.0000 4.3301
v  3.8302 3.0000 3.2139
v  4.6985 3.0000 1.7101
v  4.6985 5.0000 -1.7101
v  5.0000 5.0000 -0.0000
v  3.8302 5.0000 -3.2139
v  2.5000 5.0000 -4.3301
v  0.8682 5.0000 -4.9240
v  -0.8682 5.0000 -4.9240
v  -2.5000 5.0000 -4.3301
v  -3.8302 5.0000 -3.2139
v  -4.6985 5.0000 -1.7101
v  -5.0000 5.0000 -0.0000
v  -4.6985 5.0000 1.7101
v  -3.8302 5.0000 3.2139
v  -2.5000 5.0000 4.3301
v  -0.8682 5.0000 4.9240
v  0.8682 5.0000 4.9240
v  2.5000 5.0000 4.3301
v  3.8302 5.0000 3.2139
v  4.6985 5.0000 1.7101
v  0.0000 5.0000 -0.0000
# 110 vertices

vn 0.0000 -1.0000 -0.0000
vn 1.0000 0.0000 0.0000
vn 0.9397 0.0000 -0.3420
vn 0.7660 0.0000 -0.6428
vn 0.5000 0.0000 -0.8660
vn 0.1736 0.0000 -0.9848
vn -0.1736 0.0000 -0.9848
vn -0.5000 0.0000 -0.8660
vn -0.7660 0.0000 -0.6428
vn -0.9397 0.0000 -0.3420
vn -1.0000 0.0000 -0.0000
vn -0.9397 0.0000 0.3420
vn -0.7660 0.0000 0.6428
vn -0.5000 0.0000 0.8660
vn -0.1736 0.0000 0.9848
vn 0.1736 0.0000 0.9848
vn 0.5000 0.0000 0.8660
vn 0.7660 0.0000 0.6428
vn 0.9397 0.0000 0.3420
vn 0.0000 1.0000 -0.0000
# 20 vertex normals

vt 0.5000 0.5000 -0.0020
vt 0.1154 0.8227 -0.0020
vt 0.0282 0.6717 -0.0020
vt -0.0020 0.5000 -0.0020
vt 0.4128 0.9944 -0.0020
vt 0.2490 0.9348 -0.0020
vt 0.7510 0.9348 -0.0020
vt 0.5872 0.9944 -0.0020
vt 0.9718 0.6717 -0.0020
vt 0.8846 0.8227 -0.0020
vt 0.9718 0.3283 -0.0020
vt 1.0020 0.5000 -0.0020
vt 0.7510 0.0652 -0.0020
vt 0.8846 0.1773 -0.0020
vt 0.4128 0.0056 -0.0020
vt 0.5872 0.0056 -0.0020
vt 0.1154 0.1773 -0.0020
vt 0.2490 0.0652 -0.0020
vt 0.0282 0.3283 -0.0020
vt 0.5000 -0.0020 1.0020
vt 0.6717 -0.0020 0.9718
vt 0.6717 0.1988 0.9718
vt 0.5000 0.1988 1.0020
vt 0.8227 -0.0020 0.8846
vt 0.8227 0.1988 0.8846
vt 0.1154 -0.0020 0.8227
vt 0.2490 -0.0020 0.9348
vt 0.2490 0.1988 0.9348
vt 0.1154 0.1988 0.8227
vt 0.4128 -0.0020 0.9944
vt 0.4128 0.1988 0.9944
vt 0.5872 -0.0020 0.9944
vt 0.5872 0.1988 0.9944
vt 0.7510 -0.0020 0.9348
vt 0.7510 0.1988 0.9348
vt 0.8846 -0.0020 0.8227
vt 0.8846 0.1988 0.8227
vt 0.1773 -0.0020 0.1154
vt 0.3283 -0.0020 0.0282
vt 0.3283 0.1988 0.0282
vt 0.1773 0.1988 0.1154
vt 0.5000 -0.0020 -0.0020
vt 0.5000 0.1988 -0.0020
vt 0.6717 -0.0020 0.0282
vt 0.6717 0.1988 0.0282
vt 0.8227 -0.0020 0.1154
vt 0.8227 0.1988 0.1154
vt 0.1154 -0.0020 0.1773
vt 0.2490 -0.0020 0.0652
vt 0.2490 0.1988 0.0652
vt 0.1154 0.1988 0.1773
vt 0.4128 -0.0020 0.0056
vt 0.4128 0.1988 0.0056
vt 0.5872 -0.0020 0.0056
vt 0.5872 0.1988 0.0056
vt 0.7510 -0.0020 0.0652
vt 0.7510 0.1988 0.0652
vt 0.8846 -0.0020 0.1773
vt 0.8846 0.1988 0.1773
vt 0.1773 -0.0020 0.8846
vt 0.3283 -0.0020 0.9718
vt 0.3283 0.1988 0.9718
vt 0.1773 0.1988 0.8846
vt 0.6717 0.3996 0.9718
vt 0.5000 0.3996 1.0020
vt 0.8227 0.3996 0.8846
vt 0.2490 0.3996 0.9348
vt 0.1154 0.3996 0.8227
vt 0.4128 0.3996 0.9944
vt 0.5872 0.3996 0.9944
vt 0.7510 0.3996 0.9348
vt 0.8846 0.3996 0.8227
vt 0.3283 0.3996 0.0282
vt 0.1773 0.3996 0.1154
vt 0.5000 0.3996 -0.0020
vt 0.6717 0.3996 0.0282
vt 0.8227 0.3996 0.1154
vt 0.2490 0.3996 0.0652
vt 0.1154 0.3996 0.1773
vt 0.4128 0.3996 0.0056
vt 0.5872 0.3996 0.0056
vt 0.7510 0.3996 0.0652
vt 0.8846 0.3996 0.1773
vt 0.3283 0.3996 0.9718
vt 0.1773 0.3996 0.8846
vt 0.6717 0.6004 0.9718
vt 0.5000 0.6004 1.0020
vt 0.8227 0.6004 0.8846
vt 0.2490 0.6004 0.9348
vt 0.1154 0.6004 0.8227
vt 0.4128 0.6004 0.9944
vt 0.5872 0.6004 0.9944
vt 0.7510 0.6004 0.9348
vt 0.8846 0.6004 0.8227
vt 0.3283 0.6004 0.0282
vt 0.1773 0.6004 0.1154
vt 0.5000 0.6004 -0.0020
vt 0.6717 0.6004 0.0282
vt 0.8227 0.6004 0.1154
vt 0.2490 0.6004 0.0652
vt 0.1154 0.6004 0.1773
vt 0.4128 0.6004 0.0056
vt 0.5872 0.6004 0.0056
vt 0.7510 0.6004 0.0652
vt 0.8846 0.6004 0.1773
vt 0.3283 0.6004 0.9718
vt 0.1773 0.6004 0.8846
vt 0.6717 0.8012 0.9718
vt 0.5000 0.8012 1.0020
vt 0.8227 0.8012 0.8846
vt 0.2490 0.8012 0.9348
vt 0.1154 0.8012 0.8227
vt 0.4128 0.8012 0.9944
vt 0.5872 0.8012 0.9944
vt 0.7510 0.8012 0.9348
vt 0.8846 0.8012 0.8227
vt 0.3283 0.8012 0.0282
vt 0.1773 0.8012 0.1154
vt 0.5000 0.8012 -0.0020
vt 0.6717 0.8012 0.0282
vt 0.8227 0.8012 0.1154
vt 0.2490 0.8012 0.0652
vt 0.1154 0.8012 0.1773
vt 0.4128 0.8012 0.0056
vt 0.5872 0.8012 0.0056
vt 0.7510 0.8012 0.0652
vt 0.8846 0.8012 0.1773
vt 0.3283 0.8012 0.9718
vt 0.1773 0.8012 0.8846
vt 0.6717 1.0020 0.9718
vt 0.5000 1.0020 1.0020
vt 0.8227 1.0020 0.8846
vt 0.2490 1.0020 0.9348
vt 0.1154 1.0020 0.8227
vt 0.4128 1.0020 0.9944
vt 0.5872 1.0020 0.9944
vt 0.7510 1.0020 0.9348
vt 0.8846 1.0020 0.8227
vt 0.3283 1.0020 0.0282
vt 0.1773 1.0020 0.1154
vt 0.5000 1.0020 -0.0020
vt 0.6717 1.0020 0.0282
vt 0.8227 1.0020 0.1154
vt 0.2490 1.0020 0.0652
vt 0.1154 1.0020 0.1773
vt 0.4128 1.0020 0.0056
vt 0.5872 1.0020 0.0056
vt 0.7510 1.0020 0.0652
vt 0.8846 1.0020 0.1773
vt 0.3283 1.0020 0.9718
vt 0.1773 1.0020 0.8846
vt 0.5000 0.5000 1.0020
vt 0.9718 0.3283 1.0020
vt 1.0020 0.5000 1.0020
vt 0.9718 0.6717 1.0020
vt 0.8846 0.8227 1.0020
vt 0.7510 0.9348 1.0020
vt 0.5872 0.9944 1.0020
vt 0.4128 0.9944 1.0020
vt 0.2490 0.9348 1.0020
vt 0.1154 0.8227 1.0020
vt 0.0282 0.6717 1.0020
vt -0.0020 0.5000 1.0020
vt 0.0282 0.3283 1.0020
vt 0.1154 0.1773 1.0020
vt 0.2490 0.0652 1.0020
vt 0.4128 0.0056 1.0020
vt 0.5872 0.0056 1.0020
vt 0.7510 0.0652 1.0020
vt 0.8846 0.1773 1.0020
# 170 texture coords

g Cylinder01
s 1
f 1/1/1 2/2/1 3/3/1 4/4/1 
f 1/1/1 5/5/1 6/6/1 2/2/1 
f 1/1/1 7/7/1 8/8/1 5/5/1 
f 1/1/1 9/9/1 10/10/1 7/7/1 
f 1/1/1 11/11/1 12/12/1 9/9/1 
f 1/1/1 13/13/1 14/14/1 11/11/1 
f 1/1/1 15/15/1 16/16/1 13/13/1 
f 1/1/1 17/17/1 18/18/1 15/15/1 
f 1/1/1 4/4/1 19/19/1 17/17/1 
s 8
f 4/20/2 3/21/3 20/22/3 21/23/2 
f 3/21/3 2/24/4 22/25/4 20/22/3 
f 2/26/4 6/27/5 23/28/5 22/29/4 
f 6/27/5 5/30/6 24/31/6 23/28/5 
f 5/30/6 8/32/7 25/33/7 24/31/6 
f 8/32/7 7/34/8 26/35/8 25/33/7 
f 7/34/8 10/36/9 27/37/9 26/35/8 
f 10/38/9 9/39/10 28/40/10 27/41/9 
f 9/39/10 12/42/11 29/43/11 28/40/10 
f 12/42/11 11/44/12 30/45/12 29/43/11 
f 11/44/12 14/46/13 31/47/13 30/45/12 
f 14/48/13 13/49/14 32/50/14 31/51/13 
f 13/49/14 16/52/15 33/53/15 32/50/14 
f 16/52/15 15/54/16 34/55/16 33/53/15 
f 15/54/16 18/56/17 35/57/17 34/55/16 
f 18/56/17 17/58/18 36/59/18 35/57/17 
f 17/60/18 19/61/19 37/62/19 36/63/18 
f 19/61/19 4/20/2 21/23/2 37/62/19 
f 21/23/2 20/22/3 38/64/3 39/65/2 
f 20/22/3 22/25/4 40/66/4 38/64/3 
f 22/29/4 23/28/5 41/67/5 40/68/4 
f 23/28/5 24/31/6 42/69/6 41/67/5 
f 24/31/6 25/33/7 43/70/7 42/69/6 
f 25/33/7 26/35/8 44/71/8 43/70/7 
f 26/35/8 27/37/9 45/72/9 44/71/8 
f 27/41/9 28/40/10 46/73/10 45/74/9 
f 28/40/10 29/43/11 47/75/11 46/73/10 
f 29/43/11 30/45/12 48/76/12 47/75/11 
f 30/45/12 31/47/13 49/77/13 48/76/12 
f 31/51/13 32/50/14 50/78/14 49/79/13 
f 32/50/14 33/53/15 51/80/15 50/78/14 
f 33/53/15 34/55/16 52/81/16 51/80/15 
f 34/55/16 35/57/17 53/82/17 52/81/16 
f 35/57/17 36/59/18 54/83/18 53/82/17 
f 36/63/18 37/62/19 55/84/19 54/85/18 
f 37/62/19 21/23/2 39/65/2 55/84/19 
f 39/65/2 38/64/3 56/86/3 57/87/2 
f 38/64/3 40/66/4 58/88/4 56/86/3 
f 40/68/4 41/67/5 59/89/5 58/90/4 
f 41/67/5 42/69/6 60/91/6 59/89/5 
f 42/69/6 43/70/7 61/92/7 60/91/6 
f 43/70/7 44/71/8 62/93/8 61/92/7 
f 44/71/8 45/72/9 63/94/9 62/93/8 
f 45/74/9 46/73/10 64/95/10 63/96/9 
f 46/73/10 47/75/11 65/97/11 64/95/10 
f 47/75/11 48/76/12 66/98/12 65/97/11 
f 48/76/12 49/77/13 67/99/13 66/98/12 
f 49/79/13 50/78/14 68/100/14 67/101/13 
f 50/78/14 51/80/15 69/102/15 68/100/14 
f 51/80/15 52/81/16 70/103/16 69/102/15 
f 52/81/16 53/82/17 71/104/17 70/103/16 
f 53/82/17 54/83/18 72/105/18 71/104/17 
f 54/85/18 55/84/19 73/106/19 72/107/18 
f 55/84/19 39/65/2 57/87/2 73/106/19 
f 57/87/2 56/86/3 74/108/3 75/109/2 
f 56/86/3 58/88/4 76/110/4 74/108/3 
f 58/90/4 59/89/5 77/111/5 76/112/4 
f 59/89/5 60/91/6 78/113/6 77/111/5 
f 60/91/6 61/92/7 79/114/7 78/113/6 
f 61/92/7 62/93/8 80/115/8 79/114/7 
f 62/93/8 63/94/9 81/116/9 80/115/8 
f 63/96/9 64/95/10 82/117/10 81/118/9 
f 64/95/10 65/97/11 83/119/11 82/117/10 
f 65/97/11 66/98/12 84/120/12 83/119/11 
f 66/98/12 67/99/13 85/121/13 84/120/12 
f 67/101/13 68/100/14 86/122/14 85/123/13 
f 68/100/14 69/102/15 87/124/15 86/122/14 
f 69/102/15 70/103/16 88/125/16 87/124/15 
f 70/103/16 71/104/17 89/126/17 88/125/16 
f 71/104/17 72/105/18 90/127/18 89/126/17 
f 72/107/18 73/106/19 91/128/19 90/129/18 
f 73/106/19 57/87/2 75/109/2 91/128/19 
f 75/109/2 74/108/3 92/130/3 93/131/2 
f 74/108/3 76/110/4 94/132/4 92/130/3 
f 76/112/4 77/111/5 95/133/5 94/134/4 
f 77/111/5 78/113/6 96/135/6 95/133/5 
f 78/113/6 79/114/7 97/136/7 96/135/6 
f 79/114/7 80/115/8 98/137/8 97/136/7 
f 80/115/8 81/116/9 99/138/9 98/137/8 
f 81/118/9 82/117/10 100/139/10 99/140/9 
f 82/117/10 83/119/11 101/141/11 100/139/10 
f 83/119/11 84/120/12 102/142/12 101/141/11 
f 84/120/12 85/121/13 103/143/13 102/142/12 
f 85/123/13 86/122/14 104/144/14 103/145/13 
f 86/122/14 87/124/15 105/146/15 104/144/14 
f 87/124/15 88/125/16 106/147/16 105/146/15 
f 88/125/16 89/126/17 107/148/17 106/147/16 
f 89/126/17 90/127/18 108/149/18 107/148/17 
f 90/129/18 91/128/19 109/150/19 108/151/18 
f 91/128/19 75/109/2 93/131/2 109/150/19 
s 1
f 110/152/20 109/153/20 93/154/20 92/155/20 
f 110/152/20 92/155/20 94/156/20 95/157/20 
f 110/152/20 95/157/20 96/158/20 97/159/20 
f 110/152/20 97/159/20 98/160/20 99/161/20 
f 110/152/20 99/161/20 100/162/20 101/163/20 
f 110/152/20 101/163/20 102/164/20 103/165/20 
f 110/152/20 103/165/20 104/166/20 105/167/20 
f 110/152/20 105/167/20 106/168/20 107/169/20 
f 110/152/20 107/169/20 108/170/20 109/153/20 
# 108 polygons

